<svg xmlns="http://www.w3.org/2000/svg" xmlns:xlink="http://www.w3.org/1999/xlink" width="1920" zoomAndPan="magnify" viewBox="0 0 1440 809.999993" height="1080" preserveAspectRatio="xMidYMid meet" version="1.2"><defs><clipPath id="f399168f38"><path d="M 687.53125 275.054688 L 752.03125 275.054688 L 752.03125 533.8125 L 687.53125 533.8125 Z M 687.53125 275.054688 "/></clipPath><clipPath id="afbc1adeb9"><path d="M 719.78125 275.054688 C 728.335938 275.054688 736.539062 278.453125 742.585938 284.5 C 748.632812 290.550781 752.03125 298.75 752.03125 307.304688 L 752.03125 501.554688 C 752.03125 510.109375 748.632812 518.3125 742.585938 524.359375 C 736.539062 530.40625 728.335938 533.804688 719.78125 533.804688 C 711.226562 533.804688 703.023438 530.40625 696.976562 524.359375 C 690.929688 518.3125 687.53125 510.109375 687.53125 501.554688 L 687.53125 307.304688 C 687.53125 298.75 690.929688 290.550781 696.976562 284.5 C 703.023438 278.453125 711.226562 275.054688 719.78125 275.054688 Z M 719.78125 275.054688 "/></clipPath></defs><g id="601667480b"><g clip-rule="nonzero" clip-path="url(#f399168f38)"><g clip-rule="nonzero" clip-path="url(#afbc1adeb9)"><path style=" stroke:none;fill-rule:nonzero;fill:#ffffff;fill-opacity:1;" d="M 687.53125 275.054688 L 752.03125 275.054688 L 752.03125 533.8125 L 687.53125 533.8125 Z M 687.53125 275.054688 "/></g></g></g></svg>